<svg width="50" height="51" viewBox="0 0 50 51" fill="none" xmlns="http://www.w3.org/2000/svg">
<path d="M48.5144 21.4626L40.2727 29.7043L35.5691 24.9922L39.124 21.4626C39.4069 21.1321 39.3878 20.6398 39.0801 20.3321C38.7727 20.0248 38.2805 20.0057 37.95 20.2886L34.3871 23.8101L32.0391 21.4541L40.2727 13.2123C40.5955 12.8876 40.5955 12.3632 40.2727 12.0384C39.9479 11.7156 39.4235 11.7156 39.0988 12.0384L30.266 20.8715C30.1083 21.0276 30.0197 21.2406 30.0197 21.4626C30.0197 21.6845 30.1083 21.8971 30.266 22.0536L31.4481 23.2272L30.266 24.4097C28.8685 23.0109 26.6799 22.7882 25.0295 23.8768L24.3803 23.2272C23.6003 22.4492 22.5434 22.0122 21.4414 22.0118C20.9207 22.0118 20.404 22.1077 19.9178 22.2951L18.4943 20.8715L19.0853 20.2886C19.243 20.1321 19.3317 19.9195 19.3317 19.6976C19.3317 19.4756 19.243 19.2626 19.0853 19.1065L10.8188 10.8648C10.4924 10.5404 9.96477 10.5425 9.64079 10.8689C9.31641 11.1953 9.31844 11.7225 9.64486 12.0469L17.2955 19.6976L16.7045 20.2801L12.542 24.4011L9.60339 21.4541C9.44689 21.2963 9.23429 21.2077 9.01235 21.2077C8.7904 21.2077 8.5774 21.2963 8.4213 21.4541C8.09814 21.7788 8.09814 22.3032 8.4213 22.628L11.368 25.5751L10.1859 26.7487L9.07861 27.9726L1.42794 20.2886C1.27185 20.1309 1.05884 20.0423 0.836898 20.0423C0.614951 20.0423 0.402354 20.1309 0.245853 20.2886C-0.0769053 20.6134 -0.0769053 21.1378 0.245853 21.4626L8.48756 29.7043C8.64488 29.86 8.85747 29.947 9.07861 29.9458C9.30015 29.947 9.51274 29.86 9.67006 29.7043L10.8188 28.5303L11.9924 29.7043C10.3676 31.3299 10.3676 33.9644 11.9924 35.59L13.5578 37.1302C13.7139 37.2879 13.9269 37.3765 14.1488 37.3765C14.3708 37.3765 14.5834 37.2879 14.7399 37.1302C15.0626 36.8054 15.0626 36.281 14.7399 35.9562L13.1997 34.4164C12.7293 33.9477 12.4651 33.3111 12.4651 32.6473C12.4651 31.9831 12.7293 31.3465 13.1997 30.8783L13.7826 30.2953L19.6764 24.4011C20.6658 23.4625 22.217 23.4625 23.2064 24.4011L28.501 29.6958C28.7839 30.0262 28.7648 30.5185 28.4575 30.8262C28.1498 31.1335 27.6575 31.1526 27.3274 30.8697L23.4893 27.032C23.1609 26.7056 22.6296 26.7072 22.3031 27.0361C21.9767 27.3649 21.9784 27.8958 22.3072 28.2222L26.1449 32.0603C26.8587 32.7794 27.936 32.9965 28.8721 32.6095C29.8087 32.2225 30.4184 31.3083 30.416 30.2953C30.4152 29.6332 30.1518 28.9982 29.6831 28.5303L26.2535 25.1003C27.2096 24.667 28.3331 24.858 29.092 25.5832L36.1602 32.6514C36.6256 33.1205 36.8862 33.7554 36.8846 34.4164C36.8862 35.0774 36.6256 35.7119 36.1602 36.181L33.8041 38.5371L31.39 40.9431L29.6831 42.6581L24.9714 47.3698C24.6466 47.6926 24.1222 47.6926 23.7974 47.3698C23.4747 47.0454 23.4747 46.521 23.7974 46.1963L29.1339 40.8846C29.3713 40.6813 29.475 40.3618 29.4018 40.0578C29.3286 39.7537 29.0912 39.5163 28.7872 39.4431C28.4827 39.37 28.1636 39.4732 27.9599 39.711L22.6568 45.0056C22.3267 45.2885 21.8345 45.2694 21.5267 44.9621C21.2194 44.6544 21.2003 44.1621 21.4832 43.8317L26.7779 38.5371C26.9356 38.381 27.0242 38.168 27.0242 37.946C27.0242 37.7241 26.9356 37.5115 26.7779 37.355C26.4531 37.0322 25.9287 37.0322 25.6039 37.355L20.3007 42.6581C19.9764 42.9809 19.452 42.9809 19.1272 42.6581C18.9695 42.5016 18.8809 42.289 18.8809 42.0671C18.8809 41.8451 18.9695 41.6321 19.1272 41.476L24.4218 36.181C24.5795 36.0249 24.6681 35.8119 24.6681 35.59C24.6681 35.368 24.5795 35.1554 24.4218 34.9989C24.097 34.6761 23.5726 34.6761 23.2478 34.9989L17.9451 40.3021C17.6187 40.626 17.0911 40.6244 16.7671 40.298C16.4427 39.9716 16.4447 39.4439 16.7711 39.12L23.173 32.7262C23.4995 32.3998 23.4995 31.8705 23.173 31.5441C22.8466 31.2177 22.3174 31.2177 21.991 31.5441L15.5557 37.9627C14.5818 38.9379 14.5818 40.5175 15.5557 41.4927C15.9858 41.9317 16.565 42.1935 17.1789 42.2252C17.2532 43.4926 18.267 44.5028 19.5349 44.5727C19.6052 45.8438 20.6203 46.8584 21.891 46.9288C21.9149 47.5548 22.1735 48.1495 22.6153 48.5938C23.3657 49.3425 24.5072 49.5364 25.4624 49.0767L26.1449 49.7677C26.8461 50.4693 27.8965 50.6897 28.8209 50.3287C29.7449 49.9677 30.3676 49.0942 30.4075 48.1027C31.0347 48.0836 31.631 47.8243 32.0725 47.3783C32.505 46.9442 32.7627 46.3666 32.7968 45.7548C34.068 45.6849 35.0826 44.6699 35.1529 43.3987C36.1443 43.3593 37.0179 42.7362 37.3789 41.8122C37.7402 40.8878 37.5199 39.8378 36.8179 39.1366L36.2269 38.5537L37.4089 37.3716C38.187 36.5916 38.624 35.5347 38.6244 34.4327C38.6049 33.6087 38.341 32.8091 37.8667 32.1351L39.124 30.8783L39.715 31.4693C40.0398 31.7921 40.5642 31.7921 40.889 31.4693L49.6965 22.6361C50.0193 22.3118 50.0193 21.787 49.6965 21.4626C49.5404 21.3049 49.3274 21.2163 49.1055 21.2163C48.8835 21.2163 48.6709 21.3049 48.5144 21.4626ZM12.0176 27.3482L17.3207 22.0536L18.4943 23.2272L13.1997 28.5303L12.0176 27.3482ZM28.501 48.5438C28.1762 48.8665 27.6518 48.8665 27.3274 48.5438L26.7364 47.9527L27.9185 46.7788L28.501 47.3617C28.6587 47.5178 28.7473 47.7308 28.7473 47.9527C28.7473 48.1747 28.6587 48.3877 28.501 48.5438ZM30.857 46.1877C30.5323 46.5105 30.0079 46.5105 29.6831 46.1877L29.1339 45.5967L29.725 45.0056L30.3075 44.4227L30.8989 45.0056C31.0562 45.1621 31.1448 45.3747 31.1448 45.5967C31.1448 45.8186 31.0562 46.0316 30.8989 46.1877H30.857ZM33.2131 43.8317C32.8883 44.1544 32.3639 44.1544 32.0391 43.8317L31.4481 43.2406L32.622 42.0671L33.2131 42.6581C33.5359 42.9829 33.5359 43.5073 33.2131 43.8317ZM35.5691 41.476C35.4126 41.6333 35.2 41.7219 34.9781 41.7219C34.7562 41.7219 34.5431 41.6333 34.3871 41.476L33.8041 40.8846L34.9614 39.711L35.5525 40.3021C35.8797 40.622 35.8874 41.1468 35.5691 41.476ZM36.7427 30.8783L31.4481 25.5832L32.622 24.4097L37.9252 29.7043L36.7427 30.8783Z" fill="#FFBB01"/>
<path d="M15.8139 13.8201H34.129C34.5888 13.8201 34.9615 13.4473 34.9615 12.9876V1.3325C34.9615 0.872757 34.5888 0.5 34.129 0.5H15.8139C15.3542 0.5 14.9814 0.872757 14.9814 1.3325V12.9876C14.9814 13.4473 15.3542 13.8201 15.8139 13.8201ZM16.6465 10.49C17.5659 10.49 18.3115 11.2356 18.3115 12.1551H16.6465V10.49ZM33.2965 12.1551H31.6315C31.6315 11.2356 32.377 10.49 33.2965 10.49V12.1551ZM33.2965 3.83002C32.377 3.83002 31.6315 3.0845 31.6315 2.16501H33.2965V3.83002ZM33.2965 5.49502V8.82504C31.4571 8.82504 29.9665 10.3161 29.9665 12.1551H19.9765C19.9765 10.3161 18.4854 8.82504 16.6465 8.82504V5.49502C18.4854 5.49502 19.9765 4.004 19.9765 2.16501H29.9665C29.9665 4.004 31.4571 5.49502 33.2965 5.49502ZM16.6465 2.16501H18.3115C18.3115 3.0845 17.5659 3.83002 16.6465 3.83002V2.16501Z" fill="#FFBB01"/>
<path d="M24.9713 10.49C26.8102 10.49 28.3013 8.99902 28.3013 7.16003C28.3013 5.32104 26.8102 3.83002 24.9713 3.83002C23.1319 3.83002 21.6412 5.32104 21.6412 7.16003C21.6412 8.99902 23.1319 10.49 24.9713 10.49ZM24.9713 5.49503C25.8907 5.49503 26.6363 6.24054 26.6363 7.16003C26.6363 8.07953 25.8907 8.82504 24.9713 8.82504C24.0518 8.82504 23.3062 8.07953 23.3062 7.16003C23.3062 6.24054 24.0518 5.49503 24.9713 5.49503Z" fill="#FFBB01"/>
<path d="M31.6313 7.16002C31.6313 7.61977 31.2586 7.99252 30.7988 7.99252C30.3391 7.99252 29.9663 7.61977 29.9663 7.16002C29.9663 6.70027 30.3391 6.32751 30.7988 6.32751C31.2586 6.32751 31.6313 6.70027 31.6313 7.16002Z" fill="#FFBB01"/>
<path d="M19.9763 7.16002C19.9763 7.61977 19.6035 7.99252 19.1438 7.99252C18.684 7.99252 18.3113 7.61977 18.3113 7.16002C18.3113 6.70027 18.684 6.32751 19.1438 6.32751C19.6035 6.32751 19.9763 6.70027 19.9763 7.16002Z" fill="#FFBB01"/>
<path d="M49.805 5.86978L46.475 0.874755C46.3202 0.644272 46.0612 0.50647 45.784 0.50647C45.5068 0.50647 45.2474 0.644272 45.0929 0.874755L41.7629 5.86978C41.6719 6.00514 41.6227 6.16449 41.6215 6.32749V9.65751C41.6215 10.1173 41.9942 10.49 42.454 10.49C42.9137 10.49 43.2865 10.1173 43.2865 9.65751V6.57708L45.784 2.83081L48.2815 6.57708V15.485C48.2815 15.9448 48.6543 16.3175 49.114 16.3175C49.5738 16.3175 49.9465 15.9448 49.9465 15.485V6.32749C49.9453 6.16449 49.8961 6.00514 49.805 5.86978Z" fill="#FFBB01"/>
<path d="M46.6166 12.155V7.16002C46.6166 6.70027 46.2438 6.32751 45.784 6.32751C45.3243 6.32751 44.9515 6.70027 44.9515 7.16002V12.155C44.9515 12.6148 45.3243 12.9875 45.784 12.9875C46.2438 12.9875 46.6166 12.6148 46.6166 12.155Z" fill="#FFBB01"/>
<path d="M0.828736 7.99256H1.66124V17.9826C1.66124 18.4424 2.034 18.8151 2.49374 18.8151C2.95349 18.8151 3.32625 18.4424 3.32625 17.9826V7.16006C3.32625 6.70031 2.95349 6.32755 2.49374 6.32755H2.44375L4.99126 2.76462L7.53877 6.32755H7.48877C7.02902 6.32755 6.65626 6.70031 6.65626 7.16006V8.82507C6.65626 9.28481 7.02902 9.65757 7.48877 9.65757C7.94852 9.65757 8.32127 9.28481 8.32127 8.82507V7.99256H9.15378C9.46475 7.99094 9.74889 7.81655 9.89075 7.53972C10.0326 7.26331 10.0082 6.93039 9.82815 6.67714L5.66563 0.849612C5.50873 0.633356 5.25832 0.50531 4.99126 0.50531C4.72419 0.50531 4.47338 0.633356 4.31688 0.849612L0.154359 6.67714C-0.0261248 6.93039 -0.0501081 7.26331 0.0917591 7.53972C0.233626 7.81655 0.517767 7.99094 0.828736 7.99256Z" fill="#FFBB01"/>
<path d="M4.99121 12.1551V14.6526C4.99121 15.1123 5.36397 15.4851 5.82372 15.4851C6.28346 15.4851 6.65622 15.1123 6.65622 14.6526V12.1551C6.65622 11.6953 6.28346 11.3226 5.82372 11.3226C5.36397 11.3226 4.99121 11.6953 4.99121 12.1551Z" fill="#FFBB01"/>
</svg>
