<svg width="50" height="51" viewBox="0 0 50 51" fill="none" xmlns="http://www.w3.org/2000/svg">
<path d="M42.1107 37.2029L39.1611 40.1525L37.3945 38.3778C37.0679 38.0511 36.5381 38.0511 36.2115 38.3778C35.8848 38.7045 35.8848 39.2342 36.2115 39.5609L38.5695 41.919C38.7257 42.0768 38.9389 42.1655 39.1611 42.1655C39.3832 42.1655 39.596 42.0768 39.7526 41.919L43.3271 38.3778C43.5647 38.1744 43.6684 37.8546 43.5952 37.5503C43.522 37.2456 43.2844 37.008 42.9801 36.9347C42.6758 36.8615 42.356 36.9653 42.1521 37.2029H42.1107Z" fill="#FFBB01"/>
<path d="M43.3271 31.4123V28.8292C43.3271 28.3691 42.954 27.996 42.4939 27.996H39.9943V27.1628C39.9943 25.7824 41.1135 24.6632 42.4939 24.6632C42.954 24.6632 43.3271 24.2901 43.3271 23.83C43.3271 23.3698 42.954 22.9968 42.4939 22.9968C40.1932 22.9968 38.3278 24.8621 38.3278 27.1628V27.996H35.8282C35.3681 27.996 34.995 28.3691 34.995 28.8292V31.4123C30.7219 33.3708 28.3903 38.0414 29.3924 42.6334C30.3948 47.2258 34.4604 50.5001 39.161 50.5001C43.8613 50.5001 47.9273 47.2258 48.9297 42.6334C49.9318 38.0414 47.6002 33.3708 43.3271 31.4123ZM39.9943 48.8263V47.9931C39.9943 47.533 39.6212 47.1599 39.161 47.1599C38.7009 47.1599 38.3278 47.533 38.3278 47.9931V48.8263C34.3546 48.4455 31.2097 45.3006 30.8289 41.3274H31.6621C32.1223 41.3274 32.4953 40.9543 32.4953 40.4942C32.4953 40.0341 32.1223 39.661 31.6621 39.661H30.8289C31.143 36.5491 33.1731 33.8753 36.0865 32.737C36.4071 32.6133 36.6187 32.3057 36.6199 31.9619V29.6625H41.6192V31.9619C41.62 32.3057 41.8316 32.6133 42.1522 32.737C45.0981 33.8505 47.1644 36.5291 47.4932 39.661H46.66C46.1998 39.661 45.8267 40.0341 45.8267 40.4942C45.8267 40.9543 46.1998 41.3274 46.66 41.3274H47.4932C47.1124 45.3006 43.9675 48.4455 39.9943 48.8263Z" fill="#FFBB01"/>
<path d="M26.8377 43.827C26.6628 43.827 4.16606 43.827 4.16606 43.827C2.78565 43.827 1.66642 42.7078 1.66642 41.3274V14.6646H44.9935V30.0457C44.9935 30.5058 45.3665 30.8789 45.8267 30.8789C46.2868 30.8789 46.6599 30.5058 46.6599 30.0457V8.83212C46.6599 6.53143 44.7945 4.66606 42.4938 4.66606H40.8274V3.83285C40.8274 3.37271 40.4543 2.99964 39.9942 2.99964C39.5341 2.99964 39.161 3.37271 39.161 3.83285V7.1657C39.161 8.08598 38.4148 8.83212 37.4946 8.83212C36.5743 8.83212 35.8281 8.08598 35.8281 7.1657V3.83285C35.8281 2.91257 36.5743 2.16642 37.4946 2.16642C37.9547 2.16642 38.3278 1.79335 38.3278 1.33321C38.3278 0.873074 37.9547 0.5 37.4946 0.5C35.654 0.5 34.1617 1.9923 34.1617 3.83285V4.66606H26.6628V3.83285C26.6628 3.37271 26.2897 2.99964 25.8296 2.99964C25.3694 2.99964 24.9964 3.37271 24.9964 3.83285V7.1657C24.9964 8.08598 24.2502 8.83212 23.3299 8.83212C22.4097 8.83212 21.6635 8.08598 21.6635 7.1657V3.83285C21.6635 2.91257 22.4097 2.16642 23.3299 2.16642C23.7901 2.16642 24.1632 1.79335 24.1632 1.33321C24.1632 0.873074 23.7901 0.5 23.3299 0.5C21.4894 0.5 19.9971 1.9923 19.9971 3.83285V4.66606H12.4982V3.83285C12.4982 3.37271 12.1251 2.99964 11.665 2.99964C11.2048 2.99964 10.8318 3.37271 10.8318 3.83285V7.1657C10.8318 8.08598 10.0856 8.83212 9.16534 8.83212C8.24506 8.83212 7.49891 8.08598 7.49891 7.1657V3.83285C7.49891 2.91257 8.24506 2.16642 9.16534 2.16642C9.62547 2.16642 9.99855 1.79335 9.99855 1.33321C9.99855 0.873074 9.62547 0.5 9.16534 0.5C7.32478 0.5 5.83249 1.9923 5.83249 3.83285V4.66606H4.16606C1.86537 4.66606 0 6.53143 0 8.83212V41.3274C0 43.6281 1.86537 45.4935 4.16606 45.4935H23.3299C27.7043 45.4935 27.7043 45.4935 27.7043 44.6603C27.7055 44.4389 27.6185 44.2257 27.4626 44.0687C27.2975 43.9043 27.0709 43.8165 26.8377 43.827ZM4.16606 6.33249H5.83249V7.1657C5.83249 9.00625 7.32478 10.4985 9.16534 10.4985C11.0059 10.4985 12.4982 9.00625 12.4982 7.1657V6.33249H19.9971V7.1657C19.9971 9.00625 21.4894 10.4985 23.3299 10.4985C25.1705 10.4985 26.6628 9.00625 26.6628 7.1657V6.33249H34.1617V7.1657C34.1617 9.00625 35.654 10.4985 37.4946 10.4985C39.3351 10.4985 40.8274 9.00625 40.8274 7.1657V6.33249H42.4938C43.8742 6.33249 44.9935 7.45171 44.9935 8.83212V12.9982H1.66642V8.83212C1.66642 7.45171 2.78565 6.33249 4.16606 6.33249Z" fill="#FFBB01"/>
<path d="M14.9979 17.9975C14.9979 17.5373 14.6248 17.1642 14.1647 17.1642H7.49898C7.03885 17.1642 6.66577 17.5373 6.66577 17.9975V24.6632C6.66577 25.1233 7.03885 25.4964 7.49898 25.4964H14.1647C14.6248 25.4964 14.9979 25.1233 14.9979 24.6632V17.9975ZM13.3315 23.8299H8.3322V18.8307H13.3315V23.8299Z" fill="#FFBB01"/>
<path d="M14.1647 30.4956C14.6248 30.4956 14.9979 30.1226 14.9979 29.6624C14.9979 29.2023 14.6248 28.8292 14.1647 28.8292H7.49898C7.03885 28.8292 6.66577 29.2023 6.66577 29.6624V36.3281C6.66577 36.7883 7.03885 37.1613 7.49898 37.1613H14.1647C14.6248 37.1613 14.9979 36.7883 14.9979 36.3281V32.9953C14.9979 32.5351 14.6248 32.1621 14.1647 32.1621C13.7045 32.1621 13.3315 32.5351 13.3315 32.9953V35.4949H8.3322V30.4956H14.1647Z" fill="#FFBB01"/>
<path d="M19.164 28.8292C18.7039 28.8292 18.3308 29.2023 18.3308 29.6624V36.3281C18.3308 36.7883 18.7039 37.1613 19.164 37.1613H25.8297C26.2898 37.1613 26.6629 36.7883 26.6629 36.3281V29.6624C26.6629 29.2023 26.2898 28.8292 25.8297 28.8292H19.164ZM24.9965 35.4949H19.9972V30.4956H24.9965V35.4949Z" fill="#FFBB01"/>
<path d="M37.4946 23.8299C37.9548 23.8299 38.3278 23.4569 38.3278 22.9967V17.9975C38.3278 17.5373 37.9548 17.1642 37.4946 17.1642H30.8289C30.3688 17.1642 29.9957 17.5373 29.9957 17.9975V24.6632C29.9957 25.1233 30.3688 25.4964 30.8289 25.4964C31.2891 25.4964 31.6621 25.1233 31.6621 24.6632V18.8307H36.6614V22.9967C36.6614 23.4569 37.0345 23.8299 37.4946 23.8299Z" fill="#FFBB01"/>
<path d="M26.4213 17.4059C26.2646 17.2481 26.0519 17.1594 25.8297 17.1594C25.6076 17.1594 25.3944 17.2481 25.2382 17.4059L22.4969 20.1553L19.7556 17.4059C19.4289 17.0792 18.8992 17.0792 18.5725 17.4059C18.2458 17.7326 18.2458 18.2623 18.5725 18.589L21.3219 21.3303L18.5725 24.0716C18.4146 24.2278 18.3259 24.441 18.3259 24.6632C18.3259 24.8853 18.4146 25.0985 18.5725 25.2547C18.7287 25.4126 18.9419 25.5012 19.164 25.5012C19.3862 25.5012 19.5989 25.4126 19.7556 25.2547L22.4969 22.5053L25.2382 25.2547C25.3944 25.4126 25.6076 25.5012 25.8297 25.5012C26.0519 25.5012 26.2646 25.4126 26.4213 25.2547C26.5791 25.0985 26.6678 24.8853 26.6678 24.6632C26.6678 24.441 26.5791 24.2278 26.4213 24.0716L23.6718 21.3303L26.4213 18.589C26.5791 18.4328 26.6678 18.2196 26.6678 17.9975C26.6678 17.7753 26.5791 17.5621 26.4213 17.4059Z" fill="#FFBB01"/>
</svg>
