<svg width="50" height="51" viewBox="0 0 50 51" fill="none" xmlns="http://www.w3.org/2000/svg">
<path d="M49.9035 12.3519C49.7314 11.712 49.3116 11.1664 48.7371 10.8357C48.1623 10.5033 47.4788 10.4134 46.8376 10.5855C46.1973 10.758 45.6517 11.1774 45.3209 11.7519L44.9043 12.4768C44.5085 12.2494 44.0028 12.3833 43.7713 12.7771L41.655 16.3845L40.93 15.9679C40.738 15.8568 40.5093 15.8267 40.2953 15.8845C40.0809 15.9426 39.8987 16.0834 39.7884 16.2762C39.5626 16.6745 39.7002 17.1806 40.0968 17.4093L40.8218 17.8259L33.7397 30.0988L31.9899 34.7733L31.1567 36.331C30.6689 37.1797 30.721 38.2346 31.2901 39.0308L29.4154 41.3302L28.8906 40.0141C28.6539 39.4274 28.1059 39.0255 27.4757 38.9762C26.8451 38.9266 26.2409 39.2382 25.9159 39.7805L25.616 40.2887L25.3329 36.9559C25.2678 36.1675 24.6571 35.5336 23.872 35.4384C23.0864 35.3436 22.3427 35.8143 22.0917 36.5645L20.042 42.7134C19.8988 43.1483 20.1332 43.617 20.5669 43.7634C20.6482 43.8013 20.7357 43.824 20.8252 43.8297C21.1832 43.831 21.5022 43.6027 21.6169 43.2634L23.658 37.1146L23.9497 40.497C24.0099 41.2187 24.5286 41.8188 25.234 41.9823C25.9395 42.1459 26.6693 41.835 27.0408 41.2138L27.3491 40.7053L27.8658 42.0136C28.0851 42.5649 28.581 42.9583 29.1681 43.0458C29.7552 43.1332 30.3442 42.9018 30.7153 42.4384L32.6567 39.9807C32.8715 40.0368 33.0928 40.0649 33.3149 40.0641C34.2079 40.071 35.037 39.6007 35.4894 38.8306L36.3226 37.4392L39.4971 33.5816L46.6541 21.1586L47.3791 21.5752C47.5723 21.6859 47.7131 21.8686 47.7705 22.0838C47.8282 22.2974 47.7981 22.5252 47.6875 22.7168L44.3547 28.491C44.229 28.6805 44.1863 28.9133 44.2367 29.1354C44.2872 29.3571 44.4259 29.5487 44.6212 29.6655C44.8132 29.777 45.0419 29.8071 45.2558 29.7493C45.4702 29.6911 45.6525 29.5504 45.7628 29.3575L49.0955 23.5833C49.4279 23.0085 49.5178 22.325 49.3453 21.6839C49.1728 21.0435 48.7534 20.4979 48.1789 20.1672L47.454 19.7506L49.5369 16.1428C49.7644 15.747 49.6305 15.2417 49.2371 15.0098L49.6537 14.2848C49.995 13.701 50.0853 13.0037 49.9035 12.3519ZM46.7623 12.5851C46.8726 12.3922 47.0557 12.251 47.2709 12.1937C47.4849 12.1408 47.7111 12.1705 47.9039 12.2771C48.0972 12.3873 48.2379 12.5704 48.2957 12.7852C48.3486 12.9992 48.3189 13.2254 48.2123 13.4182L47.7957 14.1432L46.3458 13.31L46.7623 12.5851ZM35.406 35.8481L34.9894 35.6064L33.7563 34.8896L34.9394 31.7236L37.5639 33.2399L35.406 35.8481ZM32.9065 38.2557C32.5546 38.0104 32.4463 37.5385 32.6567 37.1642L33.0733 36.4396L34.5228 37.2728L34.1062 37.9893C33.9895 38.1919 33.7934 38.3359 33.5651 38.3867C33.3369 38.4372 33.0981 38.39 32.9065 38.2557ZM38.5138 31.8738L35.631 30.2074L42.2966 18.6591L45.1794 20.3254L38.5138 31.8738ZM46.0126 18.884L43.1297 17.2177L44.7961 14.3348L47.6789 16.0012L46.0126 18.884Z" fill="#FFBB01"/>
<path d="M13.1476 37.8436L10.1985 40.785L8.43203 39.0186C8.10697 38.6955 7.58216 38.6955 7.2571 39.0186C7.09925 39.1752 7.01056 39.388 7.01056 39.6101C7.01056 39.8322 7.09925 40.0454 7.2571 40.2016L9.02356 41.9681C9.33601 42.2781 9.7583 42.4518 10.1985 42.4514C10.6411 42.4538 11.0671 42.2801 11.3816 41.9681L14.3225 39.0186C14.6057 38.6878 14.5866 38.1951 14.279 37.8876C13.971 37.5796 13.4784 37.5605 13.1476 37.8436Z" fill="#FFBB01"/>
<path d="M3.33282 40.085C3.33282 43.9966 6.50367 47.1671 10.415 47.1671C14.3262 47.1671 17.4971 43.9966 17.4971 40.085C17.4971 39.6248 17.124 39.2518 16.6639 39.2518C16.2038 39.2518 15.8307 39.6248 15.8307 40.085C15.8307 43.076 13.406 45.5007 10.415 45.5007C7.42392 45.5007 4.99921 43.076 4.99921 40.085C4.99921 37.0939 7.42392 34.6692 10.415 34.6692C11.5874 34.666 12.7286 35.0463 13.6643 35.7526C14.0325 36.0288 14.5549 35.954 14.8307 35.5858C15.1069 35.2176 15.0325 34.6957 14.6643 34.4194C12.5183 32.81 9.64685 32.5512 7.24777 33.7506C4.84827 34.9503 3.33282 37.4027 3.33282 40.085Z" fill="#FFBB01"/>
<path d="M29.9948 7.17383C30.455 7.17383 30.828 6.80117 30.828 6.34064C30.828 5.88051 30.455 5.50745 29.9948 5.50745H8.33185C7.87172 5.50745 7.49866 5.88051 7.49866 6.34064V9.6734C7.49866 10.1339 7.87172 10.5066 8.33185 10.5066H29.9948C30.455 10.5066 30.828 10.1339 30.828 9.6734C30.828 9.21328 30.455 8.84021 29.9948 8.84021H9.16504V7.17383H29.9948Z" fill="#FFBB01"/>
<path d="M10.8315 12.173C10.3714 12.173 9.99829 12.5461 9.99829 13.0062C9.99829 13.4668 10.3714 13.8394 10.8315 13.8394H27.4953C27.9554 13.8394 28.3285 13.4668 28.3285 13.0062C28.3285 12.5461 27.9554 12.173 27.4953 12.173H10.8315Z" fill="#FFBB01"/>
<path d="M32.4945 18.0053H14.1643C13.7042 18.0053 13.3311 18.3784 13.3311 18.8385C13.3311 19.299 13.7042 19.6717 14.1643 19.6717H32.4945C32.9546 19.6717 33.3277 19.299 33.3277 18.8385C33.3277 18.3784 32.9546 18.0053 32.4945 18.0053Z" fill="#FFBB01"/>
<path d="M24.1625 23.8377C24.1625 23.3776 23.7895 23.0045 23.3294 23.0045H6.66553C6.2054 23.0045 5.83234 23.3776 5.83234 23.8377C5.83234 24.2982 6.2054 24.6709 6.66553 24.6709H23.3294C23.7895 24.6709 24.1625 24.2982 24.1625 23.8377Z" fill="#FFBB01"/>
<path d="M32.4944 23.0045H26.6621C26.202 23.0045 25.8289 23.3776 25.8289 23.8377C25.8289 24.2982 26.202 24.6709 26.6621 24.6709H32.4944C32.9546 24.6709 33.3276 24.2982 33.3276 23.8377C33.3276 23.3776 32.9546 23.0045 32.4944 23.0045Z" fill="#FFBB01"/>
<path d="M14.9974 28.8368C15.4576 28.8368 15.8306 28.4642 15.8306 28.0037C15.8306 27.5435 15.4576 27.1705 14.9974 27.1705H6.66553C6.2054 27.1705 5.83234 27.5435 5.83234 28.0037C5.83234 28.4642 6.2054 28.8368 6.66553 28.8368H14.9974Z" fill="#FFBB01"/>
<path d="M18.3301 28.8368H24.1625C24.6226 28.8368 24.9957 28.4642 24.9957 28.0037C24.9957 27.5435 24.6226 27.1705 24.1625 27.1705H18.3301C17.87 27.1705 17.4969 27.5435 17.4969 28.0037C17.4969 28.4642 17.87 28.8368 18.3301 28.8368Z" fill="#FFBB01"/>
<path d="M37.4936 38.8352C37.0335 38.8352 36.6604 39.2082 36.6604 39.6684V48.0003C36.6604 48.4608 36.2874 48.8335 35.8272 48.8335H2.49957C2.03945 48.8335 1.66638 48.4608 1.66638 48.0003V3.00794C1.66638 2.54781 2.03945 2.17474 2.49957 2.17474H35.8272C36.2874 2.17474 36.6604 2.54781 36.6604 3.00794V18.6555C36.6604 19.1156 37.0335 19.4887 37.4936 19.4887C37.9537 19.4887 38.3268 19.1156 38.3268 18.6555V3.00794C38.3268 1.62756 37.2076 0.508362 35.8272 0.508362H2.49957C1.11919 0.508362 0 1.62756 0 3.00794V48.0003C0 49.3811 1.11919 50.4998 2.49957 50.4998H35.8272C37.2076 50.4998 38.3268 49.3811 38.3268 48.0003V39.6684C38.3268 39.2082 37.9537 38.8352 37.4936 38.8352Z" fill="#FFBB01"/>
</svg>
