<svg width="50" height="51" viewBox="0 0 50 51" fill="none" xmlns="http://www.w3.org/2000/svg">
<path d="M48.3277 36.1352V33.8352H49.1609C49.3908 33.8369 49.6109 33.7433 49.7692 33.5769C49.9107 33.4186 49.9909 33.2144 49.9941 33.002L48.5026 4.67195C48.3606 2.37892 46.459 0.591614 44.1615 0.591614C41.864 0.591614 39.9624 2.37892 39.8204 4.67195L38.3288 33.002C38.3219 33.229 38.4025 33.4495 38.5538 33.6188C38.719 33.7697 38.9383 33.8478 39.1621 33.8352H39.9953V36.1352L38.4204 39.2932C38.3016 39.5287 38.3016 39.807 38.4204 40.043L43.4198 50.0418C43.4605 50.1338 43.5203 50.216 43.5947 50.2835C43.692 50.3734 43.8092 50.4393 43.9365 50.4751H44.3946C44.5224 50.4393 44.6395 50.3734 44.7364 50.2835C44.8112 50.216 44.8706 50.1338 44.9113 50.0418L49.9107 40.043C50.0295 39.807 50.0295 39.5287 49.9107 39.2932L48.3277 36.1352ZM40.0368 32.1688L40.3871 25.5029H47.9359L48.3277 32.1688H40.0368ZM41.4868 4.71386C41.4868 3.23657 42.6842 2.03879 44.1615 2.03879C45.6388 2.03879 46.8362 3.23657 46.8362 4.71386L47.8443 23.8783H40.4787L40.5702 22.2118H45.2112C45.6717 22.2118 46.0444 21.8387 46.0444 21.3786C46.0444 20.918 45.6717 20.5454 45.2112 20.5454H40.6536L41.4868 4.71386ZM46.6612 33.8352V35.5017H41.6618V33.8352H46.6612ZM44.9947 46.134V40.5011H45.828C46.2881 40.5011 46.6612 40.128 46.6612 39.6679C46.6612 39.2077 46.2881 38.8347 45.828 38.8347H42.495C42.0349 38.8347 41.6618 39.2077 41.6618 39.6679C41.6618 40.128 42.0349 40.5011 42.495 40.5011H43.3283V46.134L40.0954 39.6679L41.3453 37.1682H46.9777L48.2276 39.6679L44.9947 46.134Z" fill="#FFBB01"/>
<path d="M28.3301 11.3379C28.7902 11.3379 29.1633 10.9648 29.1633 10.5046C29.1633 10.0445 28.7902 9.67139 28.3301 9.67139H6.66594C6.20579 9.67139 5.8327 10.0445 5.8327 10.5046V13.8376C5.8327 14.2977 6.20579 14.6708 6.66594 14.6708H28.3301C28.7902 14.6708 29.1633 14.2977 29.1633 13.8376C29.1633 13.3774 28.7902 13.0043 28.3301 13.0043H7.49917V11.3379H28.3301Z" fill="#FFBB01"/>
<path d="M29.1633 18.837C29.1633 18.3768 28.7902 18.0037 28.3301 18.0037H9.99889C9.53873 18.0037 9.16565 18.3768 9.16565 18.837C9.16565 19.2971 9.53873 19.6702 9.99889 19.6702H28.3301C28.7902 19.6702 29.1633 19.2971 29.1633 18.837Z" fill="#FFBB01"/>
<path d="M4.99945 23.0031C4.99945 23.4633 5.37254 23.8363 5.83269 23.8363H19.1645C19.6246 23.8363 19.9977 23.4633 19.9977 23.0031C19.9977 22.5429 19.6246 22.1699 19.1645 22.1699H5.83269C5.37254 22.1699 4.99945 22.5429 4.99945 23.0031Z" fill="#FFBB01"/>
<path d="M24.1639 22.1699C23.7038 22.1699 23.3307 22.5429 23.3307 23.0031C23.3307 23.4633 23.7038 23.8363 24.1639 23.8363H27.4969C27.957 23.8363 28.3301 23.4633 28.3301 23.0031C28.3301 22.5429 27.957 22.1699 27.4969 22.1699H24.1639Z" fill="#FFBB01"/>
<path d="M16.6648 27.1693C16.6648 26.7091 16.2917 26.3361 15.8315 26.3361H5.83269C5.37254 26.3361 4.99945 26.7091 4.99945 27.1693C4.99945 27.6294 5.37254 28.0025 5.83269 28.0025H15.8315C16.2917 28.0025 16.6648 27.6294 16.6648 27.1693Z" fill="#FFBB01"/>
<path d="M15.8315 31.3356C15.8315 30.8754 15.4584 30.5023 14.9983 30.5023H5.83269C5.37254 30.5023 4.99945 30.8754 4.99945 31.3356C4.99945 31.7957 5.37254 32.1688 5.83269 32.1688H14.9983C15.4584 32.1688 15.8315 31.7957 15.8315 31.3356Z" fill="#FFBB01"/>
<path d="M5.83269 34.6685C5.37254 34.6685 4.99945 35.0415 4.99945 35.5017C4.99945 35.9618 5.37254 36.3349 5.83269 36.3349H11.6653C12.1255 36.3349 12.4986 35.9618 12.4986 35.5017C12.4986 35.0415 12.1255 34.6685 11.6653 34.6685H5.83269Z" fill="#FFBB01"/>
<path d="M32.4962 0.505737H2.49971C1.11925 0.505737 0 1.62499 0 3.00545V41.3343C0 42.7148 1.11925 43.834 2.49971 43.834H16.6647C17.1249 43.834 17.498 43.461 17.498 43.0008C17.498 42.5406 17.1249 42.1676 16.6647 42.1676H2.49971C2.03956 42.1676 1.66647 41.7945 1.66647 41.3343V8.00487H33.3295V41.3343C33.3295 41.7945 32.9564 42.1676 32.4962 42.1676H29.9965C29.5364 42.1676 29.1633 42.5406 29.1633 43.0008C29.1633 43.461 29.5364 43.834 29.9965 43.834H32.4962C33.8767 43.834 34.9959 42.7148 34.9959 41.3343V3.00545C34.9959 1.62499 33.8767 0.505737 32.4962 0.505737ZM1.66647 6.33839V3.00545C1.66647 2.5453 2.03956 2.17221 2.49971 2.17221H32.4962C32.9564 2.17221 33.3295 2.5453 33.3295 3.00545V6.33839H1.66647Z" fill="#FFBB01"/>
<path d="M23.3306 31.3354C21.9501 31.3354 20.8309 32.4547 20.8309 33.8352C20.8309 35.2156 21.9501 36.3349 23.3306 36.3349C24.711 36.3349 25.8303 35.2156 25.8303 33.8352C25.8303 32.4547 24.711 31.3354 23.3306 31.3354ZM23.3306 34.6684C22.8704 34.6684 22.4973 34.2953 22.4973 33.8352C22.4973 33.375 22.8704 33.0019 23.3306 33.0019C23.7907 33.0019 24.1638 33.375 24.1638 33.8352C24.1638 34.2953 23.7907 34.6684 23.3306 34.6684Z" fill="#FFBB01"/>
<path d="M29.9965 33.8352C29.9953 32.9092 29.4826 32.0592 28.6632 31.6272C28.9358 30.7419 28.6966 29.7788 28.042 29.1238C27.3869 28.4692 26.4239 28.2299 25.5386 28.5025C25.1049 27.6856 24.2558 27.1746 23.3306 27.1746C22.4054 27.1746 21.5563 27.6856 21.1226 28.5025C20.2373 28.2299 19.2743 28.4692 18.6192 29.1238C17.9646 29.7788 17.7254 30.7419 17.998 31.6272C17.1806 32.0609 16.67 32.91 16.67 33.8352C16.67 34.7604 17.1806 35.6099 17.998 36.0432C17.7254 36.9264 17.9626 37.8878 18.6143 38.5429C18.7771 38.7052 18.9622 38.8427 19.1644 38.9514V49.6667C19.166 50.0031 19.3699 50.3054 19.6811 50.4332C19.9911 50.5638 20.3496 50.4946 20.5892 50.2582L23.3306 47.5087L26.072 50.2582C26.229 50.4145 26.4422 50.5011 26.6635 50.4999C26.773 50.5028 26.8812 50.48 26.9801 50.4332C27.2913 50.3054 27.4951 50.0031 27.4968 49.6667V38.9595C27.699 38.8509 27.8841 38.7133 28.0468 38.5514C28.6986 37.896 28.9358 36.935 28.6632 36.0517C29.4851 35.618 29.9985 34.7644 29.9965 33.8352ZM23.9222 45.7422C23.7659 45.5843 23.5527 45.4956 23.3306 45.4956C23.1084 45.4956 22.8953 45.5843 22.739 45.7422L20.8309 47.6584V39.2431L21.1226 39.1678C21.5563 39.9852 22.4054 40.4958 23.3306 40.4958C24.2558 40.4958 25.1049 39.9852 25.5386 39.1678L25.8303 39.2431V47.6584L23.9222 45.7422ZM27.4968 34.6684H27.3552C27.0159 34.6668 26.7091 34.871 26.5801 35.1851C26.452 35.4972 26.5244 35.8556 26.7636 36.0932L26.8637 36.1933C27.1867 36.5184 27.1867 37.0432 26.8637 37.3683C26.7718 37.4647 26.657 37.5363 26.5301 37.5766H26.4052C26.1428 37.6173 25.8767 37.5306 25.6887 37.3431L25.5886 37.243C25.3502 37.0029 24.9901 36.9305 24.6777 37.0603C24.3648 37.1901 24.1618 37.4964 24.1638 37.8349V38.0014C24.1638 38.4615 23.7907 38.8346 23.3306 38.8346C22.8704 38.8346 22.4974 38.4615 22.4974 38.0014V37.8598C22.499 37.5205 22.2947 37.2137 21.9806 37.0847C21.8802 37.0448 21.7723 37.0253 21.6641 37.0265C21.4428 37.0253 21.2296 37.1124 21.0725 37.2682L20.9725 37.3683C20.7845 37.5558 20.5184 37.6425 20.256 37.6014H20.1311C20.0041 37.5615 19.8894 37.4899 19.7975 37.3931C19.4744 37.068 19.4744 36.5432 19.7975 36.2181L19.9061 36.1184C20.1453 35.8804 20.2177 35.522 20.0892 35.2099C19.9602 34.8962 19.6538 34.6916 19.3145 34.6936H19.1644C18.7043 34.6936 18.3312 34.3205 18.3312 33.8604C18.3312 33.3998 18.7043 33.0272 19.1644 33.0272H19.306C19.6453 33.0288 19.9521 32.8241 20.081 32.5105C20.2092 32.1984 20.1368 31.84 19.8976 31.6019L19.7975 31.5023C19.4708 31.1776 19.4691 30.6499 19.7934 30.3232C20.1181 29.9965 20.6458 29.9945 20.9725 30.3191L21.0725 30.4274C21.3102 30.6666 21.669 30.739 21.9806 30.6104C22.2947 30.4815 22.499 30.1751 22.4974 29.8358V29.669C22.4974 29.2088 22.8704 28.8357 23.3306 28.8357C23.7907 28.8357 24.1638 29.2088 24.1638 29.669V29.8106C24.1622 30.1503 24.3664 30.4567 24.6805 30.5856C24.9922 30.7138 25.351 30.6418 25.5886 30.4021L25.6887 30.3025C26.013 29.9758 26.5411 29.9737 26.8678 30.298C27.1945 30.6226 27.1961 31.1503 26.8718 31.477L26.7636 31.5771C26.5244 31.8147 26.452 32.1736 26.5801 32.4852C26.7091 32.7993 27.0159 33.0036 27.3552 33.0019H27.4968C27.9569 33.0019 28.33 33.375 28.33 33.8352C28.33 34.2953 27.9569 34.6684 27.4968 34.6684Z" fill="#FFBB01"/>
</svg>
