<svg width="50" height="50" viewBox="0 0 50 50" fill="none" xmlns="http://www.w3.org/2000/svg">
<path d="M49.1667 24.6667H30.1082C29.648 24.6667 29.2749 25.0398 29.2749 25.5C29.2749 25.9602 29.648 26.3334 30.1082 26.3334H48.3333V34.6667H44.1667V28.8334C44.1667 28.3731 43.7935 28 43.3333 28C42.8731 28 42.5 28.3731 42.5 28.8334V34.6667H20V26.3334H25C25.4602 26.3334 25.8333 25.9602 25.8333 25.5C25.8333 25.0398 25.4602 24.6667 25 24.6667H19.1667C18.7065 24.6667 18.3333 25.0398 18.3333 25.5V35.5C18.3333 35.9602 18.7065 36.3334 19.1667 36.3334H26.6667V38H19.1667C18.7065 38 18.3333 38.3731 18.3333 38.8334V44.6667H15.8333V43.8334C15.8333 43.3731 15.4602 43 15 43H12.5V38.8334C12.5 38.3731 12.1269 38 11.6667 38C11.2065 38 10.8333 38.3731 10.8333 38.8334V43.8334C10.8333 44.2936 11.2065 44.6667 11.6667 44.6667H14.1667V46.3334H5.83333V44.6667H8.33333C8.79354 44.6667 9.16667 44.2936 9.16667 43.8334V38.8334C9.16667 38.3731 8.79354 38 8.33333 38C7.87313 38 7.5 38.3731 7.5 38.8334V43H5C4.53979 43 4.16667 43.3731 4.16667 43.8334V44.6667H0.833333C0.373128 44.6667 0 45.0398 0 45.5C0 45.9602 0.373128 46.3334 0.833333 46.3334H4.16667V47.1667C4.16667 47.6269 4.53979 48 5 48H15C15.4602 48 15.8333 47.6269 15.8333 47.1667V46.3334H18.3333V48.8334C18.3333 49.2936 18.7065 49.6667 19.1667 49.6667H49.1667C49.6269 49.6667 50 49.2936 50 48.8334V38.8334C50 38.3731 49.6269 38 49.1667 38H41.6667V36.3334H49.1667C49.6269 36.3334 50 35.9602 50 35.5V25.5C50 25.0398 49.6269 24.6667 49.1667 24.6667ZM48.3333 48H20V39.6667H42.5V45.5C42.5 45.9602 42.8731 46.3334 43.3333 46.3334C43.7935 46.3334 44.1667 45.9602 44.1667 45.5V39.6667H48.3333V48ZM40 38H28.3333V36.3334H40V38Z" fill="#FFBB01"/>
<path d="M24.9999 28C23.6193 28 22.4999 29.1194 22.4999 30.5C22.4999 31.881 23.6193 33 24.9999 33C26.3805 33 27.4999 31.881 27.4999 30.5C27.4999 29.1194 26.3805 28 24.9999 28ZM24.9999 31.3333C24.5397 31.3333 24.1665 30.9602 24.1665 30.5C24.1665 30.0398 24.5397 29.6667 24.9999 29.6667C25.4601 29.6667 25.8332 30.0398 25.8332 30.5C25.8332 30.9602 25.4601 31.3333 24.9999 31.3333Z" fill="#FFBB01"/>
<path d="M30.0001 33C30.4603 33 30.8334 32.6269 30.8334 32.1667V28.8333C30.8334 28.3731 30.4603 28 30.0001 28C29.5399 28 29.1667 28.3731 29.1667 28.8333V32.1667C29.1667 32.6269 29.5399 33 30.0001 33Z" fill="#FFBB01"/>
<path d="M34.1667 32.1667V28.8333C34.1667 28.3731 33.7935 28 33.3333 28C32.8731 28 32.5 28.3731 32.5 28.8333V32.1667C32.5 32.6269 32.8731 33 33.3333 33C33.7935 33 34.1667 32.6269 34.1667 32.1667Z" fill="#FFBB01"/>
<path d="M37.4999 32.1667V28.8333C37.4999 28.3731 37.1268 28 36.6666 28C36.2064 28 35.8333 28.3731 35.8333 28.8333V32.1667C35.8333 32.6269 36.2064 33 36.6666 33C37.1268 33 37.4999 32.6269 37.4999 32.1667Z" fill="#FFBB01"/>
<path d="M40.8332 32.1667V28.8333C40.8332 28.3731 40.46 28 39.9998 28C39.5396 28 39.1665 28.3731 39.1665 28.8333V32.1667C39.1665 32.6269 39.5396 33 39.9998 33C40.46 33 40.8332 32.6269 40.8332 32.1667Z" fill="#FFBB01"/>
<path d="M26.6665 43C26.2063 43 25.8332 43.3732 25.8332 43.8334C25.8332 44.2936 25.4601 44.6667 24.9999 44.6667C24.5397 44.6667 24.1665 44.2936 24.1665 43.8334C24.1665 43.3732 24.5397 43 24.9999 43C25.4601 43 25.8332 42.6269 25.8332 42.1667C25.8332 41.7065 25.4601 41.3334 24.9999 41.3334C23.6193 41.3334 22.4999 42.4528 22.4999 43.8334C22.4999 45.2144 23.6193 46.3334 24.9999 46.3334C26.3805 46.3334 27.4999 45.2144 27.4999 43.8334C27.4999 43.3732 27.1267 43 26.6665 43Z" fill="#FFBB01"/>
<path d="M30.0001 41.3334C29.5399 41.3334 29.1667 41.7065 29.1667 42.1667V45.5C29.1667 45.9602 29.5399 46.3334 30.0001 46.3334C30.4603 46.3334 30.8334 45.9602 30.8334 45.5V42.1667C30.8334 41.7065 30.4603 41.3334 30.0001 41.3334Z" fill="#FFBB01"/>
<path d="M33.3333 41.3334C32.8731 41.3334 32.5 41.7065 32.5 42.1667V45.5C32.5 45.9602 32.8731 46.3334 33.3333 46.3334C33.7935 46.3334 34.1667 45.9602 34.1667 45.5V42.1667C34.1667 41.7065 33.7935 41.3334 33.3333 41.3334Z" fill="#FFBB01"/>
<path d="M36.6666 41.3334C36.2064 41.3334 35.8333 41.7065 35.8333 42.1667V45.5C35.8333 45.9602 36.2064 46.3334 36.6666 46.3334C37.1268 46.3334 37.4999 45.9602 37.4999 45.5V42.1667C37.4999 41.7065 37.1268 41.3334 36.6666 41.3334Z" fill="#FFBB01"/>
<path d="M39.9998 41.3334C39.5396 41.3334 39.1665 41.7065 39.1665 42.1667V45.5C39.1665 45.9602 39.5396 46.3334 39.9998 46.3334C40.46 46.3334 40.8332 45.9602 40.8332 45.5V42.1667C40.8332 41.7065 40.46 41.3334 39.9998 41.3334Z" fill="#FFBB01"/>
<path d="M6.31676 30.3418C6.42703 30.3906 6.54625 30.4158 6.66669 30.4167C7.05284 30.411 7.38406 30.1404 7.46747 29.7636C7.55048 29.3864 7.36412 29.0019 7.01663 28.8334C3.09939 27.0382 0.961124 22.7572 1.8795 18.547C2.79747 14.3368 6.52428 11.3346 10.8334 11.3334C11.6789 11.333 12.5204 11.4506 13.3334 11.6833C13.7484 11.8034 14.1858 11.5861 14.3417 11.1837C16.4388 5.74422 21.6704 2.15942 27.5 2.16675C34.1398 2.1993 39.8771 6.81356 41.3334 13.2918C41.4079 13.6259 41.6789 13.8802 42.0166 13.9335C45.6535 14.5146 48.3305 17.6506 48.3334 21.3334C48.3297 21.5759 48.313 21.818 48.2833 22.0585C48.2528 22.2823 48.3146 22.5094 48.4542 22.6868C48.5942 22.8642 48.8001 22.9773 49.0251 23.0001C49.2477 23.0233 49.4702 22.9561 49.6424 22.8133C49.8149 22.6709 49.9227 22.465 49.9418 22.242C49.9785 21.9405 49.998 21.6374 50 21.3334C50.0171 17.0365 47.0309 13.311 42.8333 12.3918C41.0034 5.41382 34.714 0.535888 27.5 0.50008C21.2403 0.480142 15.5636 4.17073 13.0416 9.90031C12.3161 9.74446 11.5755 9.66593 10.8334 9.66675C5.74547 9.67204 1.34687 13.2174 0.260847 18.1881C-0.824765 23.1588 1.69436 28.2153 6.31676 30.3418Z" fill="#FFBB01"/>
<path d="M13.3333 31.0087C13.4021 31.0205 13.4729 31.0205 13.5417 31.0087C14.4918 30.767 15.4032 30.3938 16.25 29.9003C16.4416 29.7888 16.5808 29.6057 16.637 29.3916C16.6931 29.1772 16.6618 28.9497 16.5499 28.7585C16.3184 28.3646 15.813 28.2307 15.4167 28.4586C14.6989 28.8745 13.9278 29.1914 13.125 29.4002C12.6648 29.4575 12.3385 29.8775 12.3958 30.3377C12.4532 30.7979 12.8731 31.1242 13.3333 31.0668V31.0087Z" fill="#FFBB01"/>
<path d="M10.0001 36.3334C10.4603 36.3334 10.8335 35.9602 10.8335 35.5V22.4169L12.6417 25.1253C12.7951 25.358 13.0547 25.4988 13.3335 25.5C13.4974 25.5021 13.6578 25.4524 13.7916 25.3584C14.1721 25.1041 14.2762 24.591 14.0252 24.2085L10.6919 19.2085C10.6919 19.2085 10.6919 19.2085 10.6499 19.1666C10.4921 18.9697 10.2528 18.8549 10.0001 18.8549C9.74744 18.8549 9.50818 18.9697 9.3503 19.1666C9.3503 19.1666 9.3503 19.1666 9.30839 19.2085L5.97506 24.2085C5.77161 24.5877 5.89043 25.0593 6.24931 25.297C6.60779 25.5346 7.08834 25.4601 7.35852 25.1253L9.16679 22.4169V35.5C9.16679 35.9602 9.53992 36.3334 10.0001 36.3334Z" fill="#FFBB01"/>
<path d="M31.2914 15.6417C30.9094 15.3906 30.3959 15.4948 30.1415 15.8752L28.3333 18.5836V8.83339C28.3333 8.37319 27.9602 8.00006 27.4999 8.00006C27.0397 8.00006 26.6666 8.37319 26.6666 8.83339V18.5836L24.8584 15.8752C24.7086 15.5965 24.4144 15.4264 24.0983 15.4362C23.7821 15.4459 23.4989 15.6335 23.3667 15.9208C23.2348 16.2081 23.2767 16.5454 23.4749 16.792L26.8082 21.792C26.9632 22.0223 27.2224 22.1602 27.4999 22.1602C27.7775 22.1602 28.0366 22.0223 28.1917 21.792L31.525 16.792C31.7761 16.4095 31.6719 15.896 31.2914 15.6417Z" fill="#FFBB01"/>
</svg>
