<svg width="15" height="16" viewBox="0 0 15 16" fill="none" xmlns="http://www.w3.org/2000/svg">
<path d="M11.8438 9.79201C11.5367 9.47226 11.1663 9.3013 10.7738 9.3013C10.3844 9.3013 10.0108 9.46909 9.69104 9.78884L8.69063 10.7861C8.60832 10.7418 8.52601 10.7006 8.44686 10.6595C8.33289 10.6025 8.22525 10.5486 8.13344 10.4917C7.19635 9.89648 6.34473 9.12085 5.52794 8.11727C5.13221 7.61707 4.86628 7.19601 4.67316 6.76862C4.93276 6.53118 5.17337 6.28424 5.40764 6.04681C5.49628 5.95816 5.58493 5.86635 5.67357 5.77771C6.3384 5.11288 6.3384 4.25177 5.67357 3.58694L4.80929 2.72266C4.71115 2.62452 4.60985 2.52321 4.51487 2.4219C4.32492 2.22562 4.12547 2.02301 3.91969 1.83306C3.6126 1.52913 3.24536 1.36768 2.85913 1.36768C2.47289 1.36768 2.09932 1.52913 1.78274 1.83306C1.77957 1.83622 1.77957 1.83622 1.77641 1.83939L0.700017 2.92528C0.294788 3.3305 0.0636807 3.82438 0.013027 4.3974C-0.0629535 5.32183 0.20931 6.18294 0.418256 6.74646C0.931124 8.12994 1.69726 9.41211 2.84013 10.7861C4.22678 12.4418 5.89518 13.7493 7.80103 14.6706C8.52917 15.0157 9.50109 15.4241 10.587 15.4937C10.6535 15.4969 10.7231 15.5 10.7864 15.5C11.5177 15.5 12.1319 15.2373 12.6131 14.7149C12.6163 14.7086 12.6226 14.7054 12.6258 14.6991C12.7904 14.4996 12.9804 14.3192 13.1798 14.1261C13.3159 13.9963 13.4552 13.8601 13.5914 13.7177C13.9048 13.3916 14.0694 13.0117 14.0694 12.6223C14.0694 12.2297 13.9016 11.853 13.5819 11.5364L11.8438 9.79201ZM12.9772 13.1257C12.974 13.1257 12.974 13.1288 12.9772 13.1257C12.8537 13.2586 12.7271 13.3789 12.591 13.5119C12.3852 13.7082 12.1762 13.9139 11.98 14.1451C11.6602 14.487 11.2835 14.6484 10.7896 14.6484C10.7421 14.6484 10.6914 14.6484 10.644 14.6453C9.7037 14.5851 8.82993 14.2179 8.1746 13.9045C6.38272 13.037 4.80929 11.8055 3.5018 10.2447C2.42224 8.94356 1.70043 7.74054 1.22238 6.44887C0.927959 5.66057 0.82032 5.0464 0.867807 4.46705C0.899466 4.09664 1.04193 3.78955 1.3047 3.52679L2.38425 2.44723C2.53938 2.3016 2.704 2.22246 2.86546 2.22246C3.06491 2.22246 3.22637 2.34276 3.32768 2.44407C3.33084 2.44723 3.33401 2.4504 3.33717 2.45356C3.53029 2.63402 3.71391 2.8208 3.90703 3.02025C4.00517 3.12156 4.10647 3.22287 4.20778 3.32734L5.07206 4.19162C5.40764 4.5272 5.40764 4.83745 5.07206 5.17303C4.98025 5.26484 4.89161 5.35665 4.7998 5.44529C4.53386 5.71756 4.2806 5.97083 4.00517 6.21776C3.99884 6.22409 3.9925 6.22726 3.98934 6.23359C3.71708 6.50585 3.76773 6.77179 3.82471 6.95224C3.82788 6.96174 3.83105 6.97123 3.83421 6.98073C4.05899 7.52526 4.37557 8.03813 4.85678 8.64914L4.85995 8.6523C5.73372 9.72869 6.65499 10.5676 7.67123 11.2103C7.80103 11.2926 7.93399 11.3591 8.06063 11.4224C8.1746 11.4794 8.28224 11.5332 8.37404 11.5902C8.38671 11.5965 8.39937 11.606 8.41203 11.6124C8.51967 11.6662 8.62098 11.6915 8.72545 11.6915C8.98822 11.6915 9.15285 11.5269 9.20666 11.4731L10.2894 10.3904C10.397 10.2827 10.568 10.1529 10.7674 10.1529C10.9637 10.1529 11.1252 10.2764 11.2233 10.384C11.2265 10.3872 11.2265 10.3872 11.2296 10.3904L12.974 12.1347C13.3001 12.4577 13.3001 12.7901 12.9772 13.1257Z" fill="#949494"/>
<path d="M8.09545 4.06805C8.92491 4.20735 9.67838 4.59992 10.2799 5.20143C10.8814 5.80294 11.2708 6.55641 11.4133 7.38587C11.4481 7.59481 11.6286 7.74044 11.8343 7.74044C11.8597 7.74044 11.8818 7.73728 11.9071 7.73411C12.1414 7.69612 12.2966 7.47451 12.2586 7.24024C12.0876 6.23666 11.6127 5.32173 10.8877 4.59675C10.1628 3.87177 9.24782 3.39689 8.24425 3.22594C8.00997 3.18795 7.79153 3.34307 7.75037 3.57418C7.70922 3.80529 7.86118 4.03006 8.09545 4.06805Z" fill="#949494"/>
<path d="M14.9717 7.11682C14.69 5.46424 13.9112 3.96046 12.7145 2.76377C11.5178 1.56708 10.014 0.788277 8.36142 0.506516C8.13031 0.46536 7.91186 0.623652 7.87071 0.85476C7.83272 1.08903 7.98785 1.30748 8.22212 1.34863C9.69741 1.59873 11.0429 2.29839 12.113 3.36528C13.183 4.43534 13.8795 5.78083 14.1296 7.25611C14.1644 7.46506 14.3449 7.61069 14.5507 7.61069C14.576 7.61069 14.5981 7.60752 14.6235 7.60436C14.8546 7.56953 15.0129 7.34792 14.9717 7.11682Z" fill="#949494"/>
</svg>
