<svg width="15" height="19" viewBox="0 0 15 19" fill="none" xmlns="http://www.w3.org/2000/svg">
<path d="M7.43609 10.002C7.45435 10.002 7.47261 10.002 7.49452 10.002C7.50182 10.002 7.50912 10.002 7.51643 10.002C7.52738 10.002 7.54199 10.002 7.55295 10.002C8.62293 9.98375 9.48841 9.60761 10.1275 8.88821C11.5334 7.30332 11.2997 4.58638 11.2741 4.3271C11.1828 2.38068 10.2626 1.44947 9.50301 1.01491C8.93698 0.689894 8.276 0.514607 7.53834 0.5H7.51278C7.50912 0.5 7.50182 0.5 7.49817 0.5H7.47626C7.07091 0.5 6.27481 0.565733 5.51158 1.0003C4.7447 1.43486 3.80984 2.36608 3.71854 4.3271C3.69298 4.58638 3.45927 7.30332 4.86521 8.88821C5.50063 9.60761 6.36611 9.98375 7.43609 10.002ZM4.69358 4.41839C4.69358 4.40744 4.69723 4.39648 4.69723 4.38918C4.81774 1.77083 6.67651 1.48964 7.47261 1.48964H7.48721C7.49452 1.48964 7.50547 1.48964 7.51643 1.48964C8.50242 1.51155 10.1786 1.91325 10.2918 4.38918C10.2918 4.40013 10.2918 4.41109 10.2955 4.41839C10.2991 4.44395 10.5547 6.92719 9.39346 8.23453C8.93333 8.75309 8.31983 9.00872 7.51278 9.01602C7.50547 9.01602 7.50182 9.01602 7.49452 9.01602C7.48721 9.01602 7.48356 9.01602 7.47626 9.01602C6.67286 9.00872 6.0557 8.75309 5.59923 8.23453C4.4416 6.93449 4.68993 4.4403 4.69358 4.41839Z" fill="#949494"/>
<path d="M14.999 14.5083C14.999 14.5046 14.999 14.501 14.999 14.4973C14.999 14.4681 14.9953 14.4389 14.9953 14.406C14.9734 13.683 14.9259 11.9922 13.3411 11.4517C13.3301 11.4481 13.3155 11.4444 13.3045 11.4408C11.6576 11.0208 10.2881 10.0713 10.2735 10.0604C10.0508 9.90335 9.74402 9.95813 9.587 10.1809C9.42997 10.4036 9.48474 10.7104 9.70751 10.8674C9.76959 10.9112 11.223 11.9228 13.0416 12.3902C13.8925 12.6933 13.9874 13.6026 14.013 14.4352C14.013 14.4681 14.013 14.4973 14.0166 14.5265C14.0203 14.8552 13.9984 15.3628 13.94 15.6549C13.3484 15.9909 11.0295 17.1522 7.50181 17.1522C3.98877 17.1522 1.65526 15.9873 1.06002 15.6513C1.00159 15.3592 0.976027 14.8516 0.983331 14.5229C0.983331 14.4937 0.986983 14.4645 0.986983 14.4316C1.01255 13.599 1.10749 12.6897 1.95836 12.3866C3.77697 11.9191 5.23039 10.9039 5.29247 10.8638C5.51523 10.7067 5.57 10.4 5.41298 10.1772C5.25595 9.95447 4.9492 9.8997 4.72644 10.0567C4.71183 10.0677 3.3497 11.0172 1.69543 11.4371C1.68083 11.4408 1.66987 11.4444 1.65892 11.4481C0.0740301 11.9922 0.0265566 13.683 0.00464579 14.4024C0.00464579 14.4352 0.0046457 14.4645 0.000993893 14.4937C0.000993893 14.4973 0.000993893 14.501 0.000993893 14.5046C-0.00265792 14.6945 -0.00630965 15.6696 0.187236 16.1589C0.223754 16.2538 0.289487 16.3342 0.37713 16.389C0.486685 16.462 3.11234 18.1345 7.50546 18.1345C11.8986 18.1345 14.5242 16.4583 14.6338 16.389C14.7178 16.3342 14.7872 16.2538 14.8237 16.1589C15.0063 15.6732 15.0026 14.6982 14.999 14.5083Z" fill="#949494"/>
</svg>
